<svg id="Capa_1" enable-background="new 0 0 511.999 511.999" height="512" viewBox="0 0 511.999 511.999" width="512" xmlns="http://www.w3.org/2000/svg"><g><path d="m368.218 504.5h-307.27c-14.27 0-25.837-11.568-25.837-25.837v-417.715c0-14.27 11.568-25.837 25.837-25.837h307.269c14.27 0 25.837 11.568 25.837 25.837v417.714c.001 14.27-11.567 25.838-25.836 25.838z" fill="#fec165"/><path d="m368.218 35.111h-14.164v396.054c0 29.456-23.879 53.334-53.334 53.334h-264.947c2.646 11.459 12.913 20.001 25.176 20.001h307.269c14.27 0 25.837-11.568 25.837-25.837v-417.715c0-14.269-11.568-25.837-25.837-25.837z" fill="#fdb441"/><path d="m366.444 62.722h-303.722v414.167h138.75c43.754 0 85.715-17.381 116.653-48.319 30.938-30.938 48.319-72.9 48.319-116.653z" fill="#f2fbff"/><path d="m434.711 393.977 10.516 31.548c1.297 3.892 6.803 3.892 8.1 0l10.516-31.548-14.566-13.806z" fill="#004281"/><path d="m476.888 117.866-27.611-13.806-27.611 13.806v55.222l27.611 13.806 27.611-13.806z" fill="#fec165"/><path d="m476.626 355.63c.086-.258.151-.521.195-.788l-27.543-16.087-27.543 16.087c.044.267.109.531.195.788l12.782 38.347h29.132z" fill="#fff2e2"/><path d="m476.888 100.523c0-5.671-4.597-10.268-10.268-10.268h-34.687c-5.671 0-10.268 4.597-10.268 10.268v17.343h55.222v-17.343z" fill="#fdb4ba"/><path d="m476.888 354.011v-180.923h-55.222v180.923c0 .279.023.557.068.831h55.086c.046-.275.068-.552.068-.831z" fill="#fe646f"/><path d="m139.837 131.75-19.524 19.524-9.762-9.762-19.524 19.524 29.286 29.286 39.048-39.048z" fill="#0ab69f"/><path d="m139.837 228.388-19.524 19.524-9.762-9.762-19.524 19.524 29.286 29.286 39.048-39.048z" fill="#0ab69f"/><path d="m309.647 21.305h-74.471c-.641 0-1.199-.401-1.444-.993-3.104-7.52-10.509-12.812-19.15-12.812s-16.045 5.292-19.15 12.812c-.244.592-.803.993-1.444.993h-74.471c-.87 0-1.574.705-1.574 1.574v67.453h193.278v-67.452c.001-.87-.704-1.575-1.574-1.575z" fill="#c8effe"/><path d="m326.422 62.722c-.231 244.748.657 231.543-.854 246.162-4.953 29.161-30.338 51.365-60.91 51.365h-5.446c-16.242 0-29.408 13.167-29.408 29.408v5.445c0 30.572-22.204 55.957-51.365 60.91-13.174 1.363-11.599.766-115.717.825v20.051h138.75c43.753 0 82.687-20.409 113.625-51.348 30.938-30.938 51.347-69.871 51.347-113.625v-249.193z" fill="#dff6fd"/><path d="m318.125 428.569c-30.939 30.939-72.9 48.32-116.653 48.32h-14.5 21.048c34.123 0 61.785-27.662 61.785-61.785v-34.854h34.854c34.123 0 61.785-27.662 61.785-61.785v-21.048 14.499c0 43.753-17.381 85.714-48.319 116.653z" fill="#fff"/><path d="m466.621 82.833h-34.688c-9.797 0-17.768 7.971-17.768 17.768v253.488c0 1.319.213 2.682.647 3.991 14.616 43.849 8.392 25.176 23.299 69.894 1.604 4.813 6.091 8.049 11.165 8.049s9.562-3.235 11.165-8.048c12.552-37.653 7.766-23.297 23.299-69.895.436-1.312.647-2.676.647-3.991v-118.31c0-4.143-3.357-7.5-7.5-7.5s-7.5 3.357-7.5 7.5v111.641h-12.611v-166.754h12.611v20.111c0 4.143 3.357 7.5 7.5 7.5s7.5-3.357 7.5-7.5v-100.176c.002-9.797-7.969-17.768-17.766-17.768zm-37.455 17.768c0-1.526 1.241-2.768 2.768-2.768h34.688c1.526 0 2.768 1.241 2.768 2.768v9.844h-40.223v-9.844zm37.317 261.819-8.044 24.135h-18.322l-8.044-24.135zm-21.366 39.135h8.321l-4.16 12.48zm-3.34-54.135h-12.611v-166.754h12.611zm-12.611-181.754v-40.222h40.223v12.61h-20.111c-4.143 0-7.5 3.357-7.5 7.5s3.357 7.5 7.5 7.5h20.111v12.611h-40.223z"/><path d="m145.141 126.446c-2.929-2.927-7.678-2.929-10.606 0l-14.222 14.221-4.458-4.459c-2.929-2.928-7.678-2.928-10.606 0l-19.524 19.523c-2.927 2.927-2.93 7.676-.001 10.607l16.482 16.482h-11.873c-4.143 0-7.5 3.357-7.5 7.5s3.357 7.5 7.5 7.5h69.027c4.143 0 7.5-3.357 7.5-7.5v-13.806c0-4.143-3.357-7.5-7.5-7.5s-7.5 3.357-7.5 7.5v6.306h-13.44l26.244-26.244c2.929-2.93 2.929-7.678 0-10.607zm-24.829 53.269-18.68-18.68 8.918-8.917 4.458 4.459c2.929 2.927 7.678 2.929 10.606 0l14.222-14.221 8.917 8.917z"/><path d="m164.664 242.608-19.523-19.523c-2.929-2.927-7.678-2.929-10.606 0l-14.222 14.221-4.458-4.459c-2.93-2.928-7.678-2.928-10.607 0l-19.524 19.524c-2.929 2.93-2.929 7.678 0 10.607l16.482 16.482h-11.873c-4.143 0-7.5 3.357-7.5 7.5s3.357 7.5 7.5 7.5h69.027c4.143 0 7.5-3.357 7.5-7.5v-13.806c0-4.143-3.357-7.5-7.5-7.5s-7.5 3.357-7.5 7.5v6.306h-13.44l26.244-26.245c2.929-2.929 2.929-7.677 0-10.607zm-44.352 33.746-18.68-18.68 8.918-8.918 4.458 4.459c2.929 2.927 7.678 2.929 10.606 0l14.222-14.221 8.917 8.917z"/><path d="m207.083 135.1c0 4.143 3.357 7.5 7.5 7.5h124.25c4.143 0 7.5-3.357 7.5-7.5s-3.357-7.5-7.5-7.5h-124.25c-4.143 0-7.5 3.357-7.5 7.5z"/><path d="m338.833 155.211h-27.611c-4.143 0-7.5 3.357-7.5 7.5s3.357 7.5 7.5 7.5h27.611c4.143 0 7.5-3.357 7.5-7.5s-3.357-7.5-7.5-7.5z"/><path d="m186.972 170.211h96.639c4.143 0 7.5-3.357 7.5-7.5s-3.357-7.5-7.5-7.5h-96.639c-4.143 0-7.5 3.357-7.5 7.5s3.357 7.5 7.5 7.5z"/><path d="m186.972 197.821h69.028c4.143 0 7.5-3.357 7.5-7.5s-3.357-7.5-7.5-7.5h-69.028c-4.143 0-7.5 3.357-7.5 7.5s3.357 7.5 7.5 7.5z"/><path d="m338.833 224.238h-124.25c-4.143 0-7.5 3.357-7.5 7.5s3.357 7.5 7.5 7.5h124.25c4.143 0 7.5-3.357 7.5-7.5s-3.357-7.5-7.5-7.5z"/><path d="m338.833 251.85h-69.028c-4.143 0-7.5 3.357-7.5 7.5s3.357 7.5 7.5 7.5h69.028c4.143 0 7.5-3.357 7.5-7.5s-3.357-7.5-7.5-7.5z"/><path d="m186.972 266.85h55.223c4.143 0 7.5-3.357 7.5-7.5s-3.357-7.5-7.5-7.5h-55.223c-4.143 0-7.5 3.357-7.5 7.5s3.357 7.5 7.5 7.5z"/><path d="m186.972 294.461h124.25c4.143 0 7.5-3.357 7.5-7.5s-3.357-7.5-7.5-7.5h-124.25c-4.143 0-7.5 3.357-7.5 7.5s3.357 7.5 7.5 7.5z"/><path d="m159.36 358.944c-4.143 0-7.5 3.357-7.5 7.5v7.286h-61.527c-4.143 0-7.5 3.357-7.5 7.5s3.357 7.5 7.5 7.5h69.027c4.143 0 7.5-3.357 7.5-7.5v-14.786c0-4.142-3.357-7.5-7.5-7.5z"/><path d="m338.833 320.877h-124.25c-4.143 0-7.5 3.357-7.5 7.5s3.357 7.5 7.5 7.5h124.25c4.143 0 7.5-3.357 7.5-7.5s-3.357-7.5-7.5-7.5z"/><path d="m283.61 348.488h-96.639c-4.143 0-7.5 3.357-7.5 7.5s3.357 7.5 7.5 7.5h96.639c4.143 0 7.5-3.357 7.5-7.5s-3.357-7.5-7.5-7.5z"/><path d="m242.194 376.1h-55.223c-4.143 0-7.5 3.357-7.5 7.5s3.357 7.5 7.5 7.5h55.223c4.143 0 7.5-3.357 7.5-7.5s-3.357-7.5-7.5-7.5z"/><path d="m368.218 27.61h-49.496v-4.73c0-5.004-4.07-9.075-9.074-9.075h-70.801c-5.03-8.499-14.169-13.805-24.264-13.805-10.096 0-19.237 5.307-24.265 13.805h-70.8c-5.004 0-9.074 4.071-9.074 9.075v4.73h-49.496c-18.383 0-33.338 14.955-33.338 33.338v350.34c0 4.143 3.357 7.5 7.5 7.5s7.5-3.357 7.5-7.5v-350.34c0-10.111 8.227-18.338 18.338-18.338h49.496v12.611h-47.722c-4.143 0-7.5 3.357-7.5 7.5v414.167c0 4.143 3.357 7.5 7.5 7.5 160.829-.031 148.726.348 156.366-.884 39.413-3.973 75.953-21.245 104.34-49.633 28.387-28.386 45.66-64.925 49.633-104.338 1.305-8.089.854 5.186.884-266.813 0-4.143-3.357-7.5-7.5-7.5h-47.723v-12.61h49.496c10.111 0 18.337 8.227 18.337 18.338v417.714c0 10.111-8.226 18.337-18.337 18.337h-307.27c-10.111 0-18.338-8.226-18.338-18.337v-32.372c0-4.143-3.357-7.5-7.5-7.5s-7.5 3.357-7.5 7.5v32.372c0 18.382 14.955 33.337 33.338 33.337h307.27c18.382 0 33.337-14.955 33.337-33.337v-417.714c0-18.383-14.955-33.338-33.337-33.338zm-55.397 395.656c-14.47 14.47-31.26 25.777-49.531 33.574 8.793-11.616 14.014-26.078 14.014-41.736v-27.354h27.354c15.658 0 30.12-5.221 41.735-14.014-7.796 18.271-19.102 35.06-33.572 49.53zm46.123-353.044c-.262 258.334.59 243.536-.762 257.337-4.339 25.619-26.688 45.192-53.523 45.192h-34.854c-4.143 0-7.5 3.357-7.5 7.5v34.854c0 26.835-19.573 49.185-45.193 53.523-13.68 1.34-11.504.517-146.89.762v-399.168h40.223v20.111c0 4.143 3.357 7.5 7.5 7.5h41.416c4.143 0 7.5-3.357 7.5-7.5s-3.357-7.5-7.5-7.5h-33.916v-54.028h68.545c3.674 0 6.962-2.209 8.377-5.632 2.049-4.965 6.845-8.173 12.217-8.173s10.168 3.208 12.215 8.168c1.41 3.424 4.699 5.637 8.379 5.637h68.545v54.028h-109.361c-4.143 0-7.5 3.357-7.5 7.5s3.357 7.5 7.5 7.5h116.859c4.143 0 7.5-3.357 7.5-7.5v-20.111z"/></g></svg>