<svg enable-background="new 0 0 573.45 309.44" viewBox="0 0 573.45 309.44" xmlns="http://www.w3.org/2000/svg"><path d="m189.9 144.38c.34-.65.74-1.25.64-2.06-1.81-14.61-1.73-29.35-3.27-44.25-1.63 3.09-3.24 6.19-4.9 9.26-12.99 24.01-24.25 48.9-37.08 72.99-1.64 3.08-3.32 6.14-6.06 8.47-5.35 4.55-10.96 4.79-16.41.42-5.3-4.25-9.12-9.7-12.16-15.71-7.54-14.91-11.34-30.92-13.89-47.29-1.84-11.82-3.16-23.71-3.99-35.65-.07-1.03-.3-2.05-.59-3.9-1.86 4.02-3.43 7.32-4.94 10.65-9.42 20.81-18.49 41.79-29.37 61.9-5.11 9.44-10.77 18.53-20.02 24.66-7.07 4.69-14.57 8.17-23.25 8.48-1.61.06-3.18 0-4.67-.61-3.7-1.5-4.73-4.46-2.3-7.57 18.94-24.27 32.65-51.65 46.85-78.73 8.84-16.86 17.79-33.66 25.89-50.9.32-.67.65-1.33.95-2.01 2.77-6.36 2.72-6.59-2.34-11.46-3.07-2.95-2.8-5.16 1.16-7.02 6.76-3.17 13.98-4.05 21.38-3.73 1.9.08 3.81.26 5.7.49 10.39 1.29 17.12 6.82 20.46 16.88 4.12 12.42 6.39 25.2 8.53 38.04 2.02 12.1 3.36 24.32 6.3 36.25.69 2.8 1.81 5.4 3.62 7.87 1.31-1.03 1.56-2.55 2.14-3.83 11.27-25.09 22.44-50.22 35.77-74.32.61-1.11 1.35-2.16 1.9-3.3 5.74-11.92 16.01-16.61 28.45-17.73 4.64-.42 9.29-.71 13.96-.15 3.98.48 5.36 1.63 5.29 5.63-.17 9.31-.48 18.63-.86 27.94-.67 16.54.19 33.01 2.31 49.41.13 1.03.14 2.13.84 3.02.19 5.76 2.19 11.15 3.45 16.7 3.47 12.4 8.89 23.69 18.35 32.78 3.68 3.53 3.9 5.27 2.16 8.62-6.01 11.59-20.85 18.82-33.46 16.14-10.04-2.13-17.31-8.49-23.73-16.04-.68-.8-1.42-1.53-2.14-2.3-5.27-8.17-8.14-17.2-9.59-26.73-.1-.72-.36-1.16-1.08-1.31z" fill="#80148c"/><path d="m528.08 168c9.42.3 18.83-1.07 28.26-.12 2.87.29 5.2 1.16 6 4.23.81 3.13-.08 5.84-2.86 7.42-4.49 2.56-8.25 5.86-11.59 9.76-2.3 2.68-5.43 3.56-8.88 3.4-15.15-.7-30.31-.74-45.46-.42-4.98.1-9.95.38-14.93.51-4.02.1-6.27-2.12-6.37-6.13-.23-9.35 1.8-18.55 1.95-27.88.03-1.9.21-3.81.23-5.71.03-2.29.65-4.45-2.99-5.26-3.38-.75-3.51-5.93.05-8.18 2.77-1.76 2.8-3.83 2.67-6.38-.58-11.76-2.23-23.39-4.07-35-.52-3.24.55-5.6 3.1-7.38 6.07-4.25 12.35-8.23 17.77-13.35 2.15-2.03 4.88-1.84 7.51-1.85 13.04-.04 26.08-.09 39.11.72 6.77.42 13.55.52 20.29-.53 1.32-.21 1.92.42 2.51 1.39 1.72 2.86 1.63 6.75-1.11 9.02-5.9 4.91-10.94 10.95-18.2 14.16-1.23.54-2.37.76-3.63.78-11.77.17-23.54.26-35.3-.3-2.18-.1-3.2.13-2.91 2.89.62 5.78.87 11.62.96 17.44.04 2.24.5 3.07 2.88 3.22 11.44.69 22.89.56 34.34.57 3.92 0 7.84-.04 11.76-.2 2.19-.09 3.36.91 3.93 2.88.99 3.45.02 6.55-3.29 8.46-4.72 2.72-8.86 6.15-12.98 9.65-3.1 2.64-6.65 3.93-10.81 3.77-7.52-.29-15.04-.33-22.56-.6-1.96-.07-2.74.32-2.72 2.53.05 4.97-.14 9.95-.44 14.92-.12 1.97.31 2.49 2.37 2.45 8.47-.15 16.94-.06 25.41-.06 0-.28 0-.55 0-.82z" fill="#80148c"/><path d="m189.9 144.38c.71.16.97.59 1.08 1.32 1.45 9.53 4.32 18.57 9.59 26.73-20.79 25.69-35.34 54.76-46.38 85.71-1.16 3.25-2.83 5.55-5.98 7.25-8.37 4.52-16.55 9.39-24.79 14.16-3.54 2.05-4.11 2.04-6.5-1.23-6.18-8.48-13.05-16.38-20.15-24.08-8.33-9.04-17.24-17.49-26.64-25.4-1.68-1.41-2.12-2.24-.47-4.22 6.56-7.87 12.98-15.86 19.17-24.01 1.84-2.43 2.95-2.09 4.69-.26 6.4 6.7 12.84 13.38 19.29 20.04 4.09 4.22 8.33 8.31 12.3 12.64 1.92 2.1 2.67 1.45 3.75-.66 6.9-13.47 14.17-26.73 22.27-39.52 7.8-12.32 16.07-24.27 25.9-35.15 4.15-4.61 8.89-8.6 12.87-13.32z" fill="#0a1865"/><path d="m423.83 121.22c.86.46 1.3.77 1.79.95 13.26 4.79 21.49 14.92 28.42 26.51 3.11 5.21 4.4 10.94 5.45 16.79.15.83.28 1.67.47 2.5 1.76 7.64 1.33 8.64-5.65 12.7-3.32 1.94-6.05 4.63-9 7.03-1.07.87-2.14 1.75-3.3 2.47-4.59 2.86-7.42 1.53-8.7-3.7-3.48-14.19-9.12-27.06-21.9-35.59-3.66-2.44-7.58-4.14-11.74-5.47-1.86-.6-2.16.07-2.18 1.72-.11 8.68-.34 17.35-.43 26.03-.03 2.91-1.03 5.29-3.53 6.66-4.88 2.68-9.06 6.24-13.24 9.82-.72.62-1.51 1.18-2.33 1.65-1.84 1.06-3.74 2.27-5.92.93-2.15-1.32-2.99-3.3-3.04-5.87-.13-8.19 1.51-16.24 1.73-24.39.11-3.98 1.69-8.16-1.37-11.86-.4-.49-.35-1.82.03-2.42 3.2-5.04 1.6-10.53 1.39-15.78-.46-11.32-2.11-22.54-3.99-33.71-.56-3.31.73-5.77 3.4-7.6 5.94-4.07 12.02-7.95 17.29-12.92 1.12-1.06 2.4-2.19 4.23-1.34 1.82.84 2.1 2.47 2.3 4.2 1.77 15.56 2.58 31.19 3.26 47.56 3.88-2.82 7.54-5.35 11.06-8.07 9.65-7.46 17.8-16.26 23.74-26.98.65-1.17 1.6-1.92 2.67-2.64 5.8-3.91 11.66-7.72 16.8-12.51 1.2-1.12 2.48-2.47 4.46-1.56 2.1.97 2.22 2.91 2.33 4.83.08 1.41-.36 2.69-1.03 3.93-1.67 3.08-3.56 6.03-5.84 8.68-8.43 9.83-17.19 19.31-27.63 27.45z" fill="#80148c"/><path d="m358.67 149.21c.02 2.1-.35 3.84-1.76 4.93-1.69 1.31-1.77 2.67-1.33 4.66.99 4.44 1.54 8.97 2.38 13.44.57 3.05-.24 5.73-2.81 7.2-5.57 3.19-10.22 7.52-15.29 11.33-2.3 1.72-4.82 3.19-7.77.77-1.1-.9-1.57-1.79-1.78-3.13-.95-5.85-2.08-11.67-3-17.52-.26-1.63-.72-2.34-2.53-2.32-8.17.1-16.33.09-24.5 0-1.55-.02-2.32.53-2.79 1.93-1.84 5.54-5.07 9.72-10.51 12.44-3.14 1.57-5.63 4.45-8.46 6.67-1.16.91-2.41 1.73-3.71 2.43-1.78.95-3.6 1.24-5.29-.33-1.79-1.67-2.37-3.67-1.52-5.93 1.89-5.05 3.85-10.08 5.87-15.08.5-1.23.55-1.95-.67-2.91-2.71-2.13-2.85-3.96-.91-6.8.41-.6.87-1.34 1.49-1.6 5.81-2.46 7.51-7.75 9.53-13.03 6.26-16.41 12.49-32.82 17.78-49.57.96-3.04 2.63-5.35 5.4-7.13 5.43-3.49 10.76-7.15 15.53-11.57 3.4-3.15 4.87-2.85 6.96 1.16 10.01 19.26 16.38 39.87 22.32 60.62.68 2.36.84 4.46 4.38 4.48 2.69 0 2.83 2.94 2.99 4.86zm-50.45-5.52h12.59c-1.67-5.54-3.2-10.97-5.49-16.69-2.48 5.84-4.74 11.14-7.1 16.69z" fill="#80148c"/><path d="m204.29 243.44c0 5.5-.02 11 .01 16.5.01 1.76-.65 3.19-2.13 4-3.28 1.8-5.99 4.33-8.9 6.61-1.36 1.06-2.85 1.95-4.65 1.1-1.97-.93-2.16-2.77-2.03-4.62.56-7.59 1.66-15.15 1.45-22.8-.04-1.38.07-2.69-1.28-3.67-.97-.71-1.05-1.84-.36-2.84 1.14-1.68 1.1-3.41.19-5.09-1.27-2.34-.09-3.86 1.64-5.09 3.71-2.63 7.53-5.1 10.92-8.18 2.33-2.12 3.49-.43 3.87 1.7.64 3.56 2.21 3.6 5.08 2.14 4.11-2.08 8.6-1.97 13.04-1.14.9.17 2.07.53 2.51 1.2 2.09 3.18 4.47 2.04 6.95.74 3.96-2.07 8.21-2.72 12.61-2.32 5.19.48 8.26 3.2 9.66 8.55 1.61 6.13 1.36 12.36.84 18.59-.31 3.68-.73 7.36-.44 11.07.14 1.75-.63 3.18-2.1 4.01-3.25 1.84-6 4.32-8.91 6.6-1.34 1.05-2.82 2.05-4.63 1.1-1.91-1.01-1.47-2.79-1.34-4.48.47-6.01.92-12.02 1.35-18.04.35-4.88-1.92-8.78-4.75-12.44-.72-.93-1.74-1.79-2.99-1.29-1.41.56-.52 1.83-.45 2.77.35 5.1-.94 10.16-.61 15.19.43 6.68-1.46 11.58-7.79 14.5-1.78.82-3.13 2.51-4.81 3.59-1.07.69-2.37.93-3.57.03-1.15-.87-1.22-1.98-1.09-3.37.6-6.32 1.1-12.65 1.51-18.98.32-4.97-2.07-8.96-5.02-12.67-.67-.84-1.63-1.48-2.79-1.1-1.57.52-.6 1.78-.63 2.71-.05 1.8-.01 3.6-.01 5.4-.12.02-.23.02-.35.02z" fill="#81148c"/><path d="m305.21 229.54c.09 1.76-.73 4.23-3.28 6.22-7.02 5.47-13.86 11.16-20.88 16.62-1.67 1.3-1.86 2.28-.49 3.76.57.62.98 1.38 1.53 2.02.76.88 1.64 1.97 2.85 1.7 1.33-.3 1.94-1.59 2.14-2.9.32-2.08 1.61-3.31 3.29-4.41 3.28-2.14 6.53-4.34 9.4-7.04.85-.8 1.79-1.67 3.08-1.14 1.45.59 1.42 1.96 1.44 3.24.15 8.17-2.79 14.62-10.27 18.6-1.11.59-2.22 1.34-3.05 2.27-4.98 5.58-11.67 5.54-18.22 5.29-5.59-.22-11.04-6.55-12.48-13.15-3.05-13.96 1.72-24.61 13.26-32.62 3.04-2.11 5.83-4.56 8.76-6.83 1.94-1.5 4.12-2.58 6.4-3.46 8.12-3.14 15.55 1.28 16.52 11.83zm-27.97 18.22c2.96-1.95 5.3-3.89 7.44-6.06 5.45-5.51 4.3-3.46-1.14-7.43-.08-.06-.18-.11-.28-.14-1.48-.56-2.82-.42-3.34 1.25-1.21 3.89-2.92 7.68-2.68 12.38z" fill="#81148c"/><path d="m239.39 133.23c-1.27-5.54-3.26-10.93-3.45-16.7 6.81-2.57 13.75-4.7 20.95-5.89 3.78-.21 7.47-.93 11.13-1.85h3.77c-1.13 2.16-3.14 3.08-4.78 4.19-9.12 6.18-18.08 12.57-26.49 19.71-.31.26-.76.36-1.13.54z" fill="#0a1865"/><path d="m268.01 108.79c-3.66.92-7.35 1.64-11.13 1.85 3.61-1.22 7.29-2.04 11.13-1.85z" fill="#222c73"/><path d="m308.22 143.69c2.36-5.54 4.61-10.85 7.1-16.69 2.3 5.72 3.83 11.15 5.49 16.69-4.27 0-8.24 0-12.59 0z" fill="#fdfdfd"/><path d="m277.24 247.76c-.24-4.7 1.47-8.49 2.67-12.38.52-1.68 1.86-1.82 3.34-1.25.1.04.2.08.28.14 5.44 3.97 6.59 1.92 1.14 7.43-2.13 2.16-4.46 4.11-7.43 6.06z" fill="#fdfbfd"/></svg>